<svg xmlns="http://www.w3.org/2000/svg" viewBox="0 0 1123 618" role="img" aria-label="6">
  <g transform="translate(-37 567) scale(1 -1)">
    <path d="M427 108 C419.667 108 416 112 416 120 C416 124.667 416.333 127.333 417 128 L452 214 L645 214 L603 108 Z M1124 547 L1121 540 L1140 523 L1088 394 L566 394 L543 335 L985 335 C1003.67 335 1015 328 1019 314 L1019 315 L1032 303 C1036.67 298.333 1039 291.667 1039 283 C1039 277.667 1037 270 1033 260 L933 12 C921 -16.6667 901.667 -31 875 -31 L145 -31 C134.333 -31 125.5 -29.5 118.5 -26.5 C111.5 -23.5 105.333 -19.3333 100 -14 L93 -7 L94 -7 C80.6667 -1.66667 71.1667 7.16667 65.5 19.5 C59.8333 31.8333 57 45.3333 57 60 C57 75.3333 60 90 66 104 L227 502 C237.667 532 257.333 547 286 547 Z" fill="#666666" fill-rule="evenodd"/>
    <path d="M456 123 L593 123 L616 181 L480 181 Z M286 532 C266 532 251 520.333 241 497 L80 99 C74.6667 83 72 70 72 60 C72 45.3333 76 32 84 20 C92 8 105.333 2 124 2 L854 2 C875.333 2 891 13.6667 901 37 L1001 285 C1004.33 297 1006 303.333 1006 304 C1006 314.667 999 320 985 320 L496 320 L538 427 L1058 427 L1101 532 Z" fill="#FFFFFF" fill-rule="evenodd" stroke="#D8D8D8" stroke-width="8" stroke-linejoin="round"/>
  </g>
</svg>
